# xmcd
#
# Track frame offsets: 
#        150
#        21871
#        37846
#        56483
#        75330
#        93797
#        111229
#        129143
#        149389
#        164891
#        183641
#        200113
#        217148
#        234635
#        254427
#        274581
#        291097
#        304588
#        321383
#        341361
#
# Disc length: 4796 seconds
#
# Revision: 0
# Processed by: cddbd v1.5.2PL0 Copyright (c) Steve Scherf et al.
# Submitted via: ExactAudioCopy v1.1
#
DISCID=2712ba14
DTITLE=Various Artist - Te Mooi Om Te Vergeten 1 - CD 2
DYEAR=2014
DGENRE=Easy Listening
TTITLE0=Marco Borsato - Waarom Nou Jij
TTITLE1=Player - Baby Come Back
TTITLE2=Captain and Tennille - Do That To Me One More Time
TTITLE3=Michael Jackson - One Day In Your Life
TTITLE4=Snowy White - Bird Of Paradise
TTITLE5=Freddie Aguilar - Anak
TTITLE6=Extreme - More Than Words
TTITLE7=Maggie MacNeal - Terug Naar De Kust
TTITLE8=Dr. Hook - Sexy Eyes
TTITLE9=André Van Duin and Willeke Alberti - Vrienden Blijven Doen We Al
TTITLE9=tijd
TTITLE10=Jo Lemaire and Flouze - Je Suis Venue Te Dire Que Je M'En Vais
TTITLE11=Loeki Knol - Algebra
TTITLE12=Charlene - I've Never Been To Me
TTITLE13=Nana Mouskouri - Only Love
TTITLE14=Will Tura - Ik Mis Je Zo
TTITLE15=Mary MacGregor - Torn Between Two Lovers
TTITLE16=Patrick Juvet - La Musica
TTITLE17=Benny Neyman - Waarom Fluister Ik Je Naam Nog
TTITLE18=Diana Ross and Lionel Richie - Endless Love
TTITLE19=Louis Neefs - Omdat Ik Van Je Hou
EXTD=
EXTT0=
EXTT1=
EXTT2=
EXTT3=
EXTT4=
EXTT5=
EXTT6=
EXTT7=
EXTT8=
EXTT9=
EXTT10=
EXTT11=
EXTT12=
EXTT13=
EXTT14=
EXTT15=
EXTT16=
EXTT17=
EXTT18=
EXTT19=
PLAYORDER=
